<?xml version="1.0" standalone="no"?>
<!DOCTYPE svg PUBLIC "-//W3C//DTD SVG 20010904//EN"
 "http://www.w3.org/TR/2001/REC-SVG-20010904/DTD/svg10.dtd">
<svg version="1.0" xmlns="http://www.w3.org/2000/svg"
 width="1200.000000pt" height="1200.000000pt" viewBox="0 0 1200.000000 1200.000000"
 preserveAspectRatio="xMidYMid meet">

<g transform="translate(0.000000,1200.000000) scale(0.100000,-0.100000)"
fill="#000000" stroke="none">
<path d="M5730 11543 c-139 -6 -414 -34 -580 -59 -1027 -157 -1985 -597 -2775
-1275 -154 -132 -462 -440 -594 -594 -1183 -1380 -1615 -3242 -1161 -5010 366
-1424 1305 -2658 2590 -3405 230 -133 731 -372 748 -355 3 2 -3 87 -12 187
-28 310 -37 624 -26 860 17 363 -9 239 491 2355 l220 932 -35 94 c-42 111 -77
242 -102 382 -15 79 -19 152 -19 345 0 216 3 258 23 358 93 461 348 816 677
943 156 61 340 74 490 34 181 -47 327 -167 409 -336 51 -108 70 -175 87 -309
28 -232 -26 -515 -218 -1150 -250 -826 -274 -935 -253 -1109 23 -178 86 -313
204 -439 166 -175 379 -262 642 -262 581 0 1088 359 1407 996 150 300 244 624
300 1029 30 221 32 721 4 890 -48 285 -120 508 -234 725 -325 614 -908 1011
-1658 1126 -170 27 -638 27 -805 1 -497 -77 -904 -255 -1251 -546 -615 -514
-939 -1357 -824 -2136 47 -313 172 -653 319 -863 99 -143 116 -174 116 -217 0
-48 -142 -652 -167 -708 -32 -74 -87 -77 -216 -10 -516 266 -926 957 -1054
1773 -25 158 -24 587 0 775 80 601 290 1131 627 1580 578 770 1446 1223 2560
1337 166 17 711 17 855 0 630 -73 1161 -262 1635 -583 743 -502 1213 -1244
1352 -2134 29 -189 36 -626 13 -865 -108 -1143 -631 -2093 -1450 -2633 -134
-88 -368 -206 -519 -262 -130 -48 -370 -108 -521 -131 -168 -25 -522 -26 -654
-1 -401 76 -781 294 -947 543 l-41 62 -178 -687 c-98 -377 -197 -743 -221
-812 -103 -301 -272 -651 -532 -1097 -52 -91 -91 -167 -86 -172 21 -19 352
-104 584 -149 381 -74 626 -96 1050 -95 359 0 526 11 820 55 1477 221 2809
1038 3684 2257 857 1197 1201 2680 960 4142 -112 681 -349 1327 -707 1925
-785 1313 -2077 2245 -3567 2574 -465 102 -959 144 -1460 124z"/>
</g>
</svg>
