<?xml version="1.0" standalone="no"?>
<!DOCTYPE svg PUBLIC "-//W3C//DTD SVG 20010904//EN"
 "http://www.w3.org/TR/2001/REC-SVG-20010904/DTD/svg10.dtd">
<svg version="1.0" xmlns="http://www.w3.org/2000/svg"
 width="1200.000000pt" height="1200.000000pt" viewBox="0 0 1200.000000 1200.000000"
 preserveAspectRatio="xMidYMid meet">

<g transform="translate(0.000000,1200.000000) scale(0.100000,-0.100000)"
fill="#000000" stroke="none">
<path d="M0 6000 l0 -6000 6000 0 6000 0 0 6000 0 6000 -6000 0 -6000 0 0
-6000z m6280 4390 c733 -42 1385 -236 1905 -568 249 -158 551 -429 736 -659
421 -523 679 -1171 763 -1913 50 -433 49 -953 0 -1335 -52 -399 -200 -863
-405 -1265 -175 -345 -372 -620 -644 -899 -198 -203 -357 -337 -660 -556 l-28
-20 32 -80 c116 -290 338 -493 616 -565 44 -12 134 -24 200 -28 l119 -7 48
-335 c26 -184 45 -340 43 -346 -4 -15 -202 -78 -320 -103 -590 -126 -1128 66
-1556 555 -92 105 -220 276 -275 366 -20 32 -36 58 -37 58 -1 0 -18 -5 -37
-10 -74 -22 -276 -50 -442 -61 -196 -13 -748 -7 -948 11 -304 27 -558 79 -830
170 -782 261 -1394 746 -1796 1422 -289 486 -458 1038 -526 1713 -20 199 -17
829 5 1022 43 379 117 696 234 1003 406 1068 1259 1882 2348 2242 456 151 962
216 1455 188z"/>
<path d="M5855 9404 c-181 -20 -440 -86 -593 -152 -111 -48 -286 -163 -402
-265 -333 -293 -585 -757 -734 -1353 -83 -331 -123 -853 -113 -1474 9 -537 40
-822 118 -1081 249 -824 655 -1282 1277 -1439 191 -49 343 -63 601 -57 124 2
273 10 330 18 l103 13 -5 44 c-3 24 -24 83 -47 130 -68 136 -217 275 -385 359
-130 65 -283 99 -397 88 -65 -7 -67 -6 -72 17 -3 12 -25 159 -49 325 l-44 301
22 10 c101 46 323 82 510 82 439 0 869 -169 1183 -465 79 -74 194 -211 221
-262 6 -13 16 -23 21 -23 5 0 42 67 84 148 221 436 367 940 425 1467 49 445
42 983 -19 1442 -57 425 -114 659 -231 945 -270 660 -687 1045 -1256 1159 -85
17 -151 22 -308 24 -110 2 -218 1 -240 -1z"/>
</g>
</svg>
