<?xml version="1.0" standalone="no"?>
<!DOCTYPE svg PUBLIC "-//W3C//DTD SVG 20010904//EN"
 "http://www.w3.org/TR/2001/REC-SVG-20010904/DTD/svg10.dtd">
<svg version="1.0" xmlns="http://www.w3.org/2000/svg"
 width="256.000000pt" height="197.000000pt" viewBox="0 0 256.000000 197.000000"
 preserveAspectRatio="xMidYMid meet">

<g transform="translate(0.000000,197.000000) scale(0.100000,-0.100000)"
fill="#000000" stroke="none">
<path d="M1150 1919 c-30 -5 -90 -22 -135 -37 -216 -75 -395 -239 -494 -454
-60 -129 -76 -210 -75 -368 1 -155 21 -244 80 -367 l35 -74 -72 -217 c-39
-119 -74 -222 -76 -228 -2 -7 98 21 224 62 125 41 232 74 238 74 5 0 45 -15
90 -34 256 -109 561 -83 795 68 253 164 391 420 391 726 0 167 -33 295 -112
430 -181 312 -533 478 -889 419z m324 -149 c331 -85 565 -405 543 -746 -17
-258 -172 -490 -402 -603 -207 -101 -447 -99 -646 5 l-67 35 -132 -41 c-73
-23 -134 -39 -137 -36 -3 2 14 62 37 133 l42 128 -35 58 c-61 101 -88 195 -94
332 -5 101 -2 134 15 203 67 265 262 463 524 532 100 26 250 26 352 0z"/>
<path d="M973 1478 c-66 -39 -112 -151 -99 -240 20 -134 196 -376 346 -477 67
-44 223 -109 283 -117 88 -12 194 39 221 107 33 81 27 92 -80 148 -53 28 -103
51 -111 51 -8 0 -38 -26 -68 -57 l-54 -58 -68 34 c-81 41 -194 151 -236 228
l-28 52 34 38 c58 65 58 64 17 174 -20 55 -41 104 -46 109 -16 16 -88 21 -111
8z"/>
</g>
</svg>
