<?xml version="1.0" standalone="no"?>
<!DOCTYPE svg PUBLIC "-//W3C//DTD SVG 20010904//EN"
 "http://www.w3.org/TR/2001/REC-SVG-20010904/DTD/svg10.dtd">
<svg version="1.0" xmlns="http://www.w3.org/2000/svg"
 width="640.000000pt" height="480.000000pt" viewBox="0 0 640.000000 480.000000"
 preserveAspectRatio="xMidYMid meet">

<g transform="translate(0.000000,480.000000) scale(0.100000,-0.100000)"
fill="#000000" stroke="none">
<path d="M3013 4560 c-850 -83 -1550 -618 -1847 -1413 -89 -237 -129 -472
-130 -747 0 -206 16 -341 64 -531 191 -767 802 -1378 1569 -1569 190 -48 325
-64 531 -64 696 0 1308 307 1737 870 278 366 427 816 427 1294 0 206 -16 341
-64 531 -211 846 -930 1494 -1794 1614 -137 19 -374 26 -493 15z m-13 -1353
c184 -246 338 -449 341 -450 3 -1 195 202 425 451 l419 452 112 0 c62 0 113
-3 113 -7 0 -5 -216 -241 -480 -527 -314 -339 -477 -523 -472 -530 86 -112
1082 -1448 1082 -1451 0 -3 -179 -5 -398 -5 l-398 0 -364 490 c-201 269 -369
489 -375 489 -5 0 -210 -218 -455 -484 -245 -266 -454 -487 -465 -490 -11 -3
-67 -5 -124 -3 l-104 3 521 563 521 563 -514 687 c-283 378 -515 690 -515 695
0 4 179 6 398 5 l397 -3 335 -448z"/>
<path d="M2220 3475 c0 -2 354 -478 788 -1057 433 -579 795 -1063 803 -1076
16 -22 19 -22 197 -20 l182 3 -806 1078 -806 1077 -179 0 c-98 0 -179 -2 -179
-5z"/>
</g>
</svg>
